<?xml version="1.0" encoding="UTF-8"?>
<!-- Generated by Pixelmator Pro 3.6.16 -->
<svg width="114" height="228" viewBox="0 0 114 228" xmlns="http://www.w3.org/2000/svg">
    <g id="SVG-copy">
        <g id="Serif">
            <path id="Path" fill="#000000" fill-rule="evenodd" stroke="#000000" stroke-linecap="round" stroke-linejoin="round" d="M 0 228 L 0 223 C 0 223 0.823578 220.476013 4 219 C 7.176422 217.523987 10.508606 213.43866 12 207 C 13.491394 200.56134 21 165 21 165 L 45.61676 47.220459 L 55.513153 2.637146 C 55.513153 2.637146 56.221283 -0.038391 57 0 C 57.778717 0.038391 58.447205 1.733215 58.447205 1.733215 L 59.617432 6.052124 L 74.003021 75.25238 L 99.236816 198.426697 C 99.236816 198.426697 101.979126 213.012207 107.185547 216.881042 C 112.391968 220.749878 114 222 114 224 C 114 226 114 228 114 228 L 71 228 L 71 224 C 71 224 71.531799 220.460632 77 218 C 82.468201 215.539368 82 209 82 209 C 82 209 81.996124 203.150146 81 197 C 80.003876 190.849854 54 58 54 58 C 54 58 53.629059 55.971497 53 56 C 52.370941 56.028503 52.093506 57.454163 52.093506 57.454163 L 27 181 L 24 199 C 24 199 21.814636 206.608704 24 212 C 26.185364 217.391296 29 219 29 219 C 29 219 35.042664 220.718506 35 224 C 34.957336 227.281494 35 228 35 228 L 0 228 Z"/>
        </g>
    </g>
</svg>
