<?xml version="1.0" encoding="UTF-8"?>
<!-- Generated by Pixelmator Pro 3.6.16 -->
<svg width="48" height="223" viewBox="0 0 48 223" xmlns="http://www.w3.org/2000/svg">
    <g id="SVG-copy">
        <g id="Serif">
            <path id="Path-copy-2" fill="#000000" fill-rule="evenodd" stroke="#000000" stroke-linecap="round" stroke-linejoin="round" d="M 0 0 C 0 0 0.932343 5.765137 4.408905 6.68634 C 9.013885 7.406311 13 14 13 14 C 13 14 16 18 16 34 C 16 50 16 169 16 169 L 16 190 C 16 190 16 214 9 214 C 4.68045 214.316772 0 220 0 220 L 0 223 L 48 223 L 48 220 C 48 220 43.893127 214.793152 39 214 C 32 214 32 190 32 190 L 32 34 C 32 34 32.386078 17.5625 35 14 C 37.613922 10.4375 43 7 43 7 C 43 7 48 6 48 0 C 43 0 0 0 0 0 Z"/>
        </g>
    </g>
</svg>
