<?xml version="1.0" encoding="UTF-8"?>
<!-- Generated by Pixelmator Pro 3.6.16 -->
<svg width="140" height="223" viewBox="0 0 140 223" xmlns="http://www.w3.org/2000/svg">
    <g id="SVG-copy">
        <g id="Serif">
            <path id="Path" fill="#000000" fill-rule="evenodd" stroke="#000000" stroke-linecap="round" stroke-linejoin="round" d="M 1 0 C 1 0 0.315857 6.971802 5 8 C 9.684143 9.028198 13 14 13 14 C 13 14 15 15 15 27 C 15 39 15 72 15 72 L 15 195 C 15 195 15.639587 209.072205 11 212 C 6.360413 214.927795 4 216 4 216 C 4 216 1 218 1 223 C 3 223 39 223 39 223 C 39 223 40 216 36 216 C 32 216 28 212 28 212 C 28 212 25 210 25 195 C 25 180 25 47 25 47 C 25 47 25.6073 44.685059 26 47 C 26.3927 49.314941 63.783142 219.562195 63.783142 219.562195 C 63.783142 219.562195 64.835693 223.076782 66.587463 223.002563 C 68.339233 222.928345 69 219 69 219 L 73 198 L 107 46 C 107 46 107.187622 44.834839 107.572144 44.826904 C 107.956665 44.81897 108 47 108 47 L 107 201 C 107 201 106 214 102 214 C 98 214 94 218 94 218 L 94 223 L 139 223 L 139 219 C 139 219 137 214 132 214 C 127 214 125 201 125 201 L 125 20 C 125 20 125 8 133 8 C 141 8 139 0 139 0 L 107 0 L 70.031067 169.189636 L 32.111389 0.221069 L 1 0 Z"/>
        </g>
    </g>
</svg>
