<?xml version="1.0" encoding="UTF-8"?>
<!-- Generated by Pixelmator Pro 3.6.16 -->
<svg width="118" height="226" viewBox="0 0 118 226" xmlns="http://www.w3.org/2000/svg">
    <g id="SVG-copy">
        <g id="Serif">
            <path id="Path" fill="#000000" fill-rule="evenodd" stroke="#000000" stroke-linecap="round" stroke-linejoin="round" d="M 0 0 C 0 0 0 4 0 4 C 0 4 1 8 5 8 C 9 8 14 16 14 16 C 14 16 21 24 21 33 C 21 42 21 196 21 196 C 21 196 21 208 18 211 C 15 214 11 216 11 216 C 11 216 7 217 7 219 C 7 221 7 223 7 223 L 45 223 L 45 219 C 45 219 44 216 41 216 C 38 216 32.932617 213.137085 32 211 C 31.067383 208.862915 30 204 30 196 C 30 188 30 183 30 183 L 30 53 L 36 68 L 98.591797 223.351074 C 98.591797 223.351074 99.272095 225.279846 100.373779 225.279846 C 101.475464 225.279846 102 222 102 222 L 102.473572 209.175598 L 102.641785 169.216064 L 103 54 L 103 29 C 103 29 102.552307 16.940857 105 14 C 107.447693 11.059143 111 8 111 8 C 111 8 112.01886 7.231567 115 6 C 117.98114 4.768433 117 0 117 0 L 79 0 C 79 0 79 6 82 6 C 85 6 88 8 88 8 C 88 8 91.284302 9.944702 92 14 C 92.715698 18.055298 94.038879 24.022827 94 28 C 93.961121 31.977173 95 162 95 162 L 31 1 L 30.444458 -0.004639 L 0 0 Z"/>
        </g>
    </g>
</svg>
