<?xml version="1.0" encoding="UTF-8"?>
<!-- Generated by Pixelmator Pro 3.6.16 -->
<svg width="105" height="230" viewBox="0 0 105 230" xmlns="http://www.w3.org/2000/svg">
    <g id="SVG-copy">
        <g id="Serif">
            <path id="Path" fill="#000000" fill-rule="evenodd" stroke="#000000" stroke-linecap="round" stroke-linejoin="round" d="M 0 117 C 0 65 16 30 16 30 C 16 30 29 0 53 0 C 77 0 90 30 90 30 C 90 30 105 59 105 117 C 105 175 90 198 90 198 C 90 198 79 230 53 230 C 27 230 15 198 15 198 C 15 198 0 169 0 117 Z M 18 116.791306 C 18 70.217392 28.613665 38.869568 28.613665 38.869568 C 28.613665 38.869568 37.237267 12 53.157764 12 C 69.078262 12 77.701866 38.869568 77.701866 38.869568 C 77.701866 38.869568 87.652176 64.843475 87.652176 116.791306 C 87.652176 168.739136 77.701866 189.339127 77.701866 189.339127 C 77.701866 189.339127 70.404968 218 53.157764 218 C 35.910561 218 27.95031 189.339127 27.95031 189.339127 C 27.95031 189.339127 18 163.365219 18 116.791306 Z"/>
        </g>
    </g>
</svg>
