<?xml version="1.0" encoding="UTF-8"?>
<!-- Generated by Pixelmator Pro 3.6.16 -->
<svg width="89" height="223" viewBox="0 0 89 223" xmlns="http://www.w3.org/2000/svg">
    <g id="SVG-copy">
        <g id="Serif">
            <path id="Path" fill="#000000" fill-rule="evenodd" stroke="#000000" stroke-linecap="round" stroke-linejoin="round" d="M 0 1 L 1 48 C 1 48 1 53 3 53 C 5 53 5 48 5 48 C 5 48 6.756836 25.536621 9 22 C 11.243164 18.463379 15 15 24 15 C 33 15 35 15 35 15 L 35 202 C 35 202 35 215 28 215 C 21 215 22 222 22 222 L 22 223 L 68 223 C 68 223 69 216 63 216 C 57 216 54 212 54 203 C 54 194 54 14 54 14 L 65 14 C 65 14 74.148926 13.692871 78 22 C 81.851074 30.307129 83.586914 37.964844 85 47 C 85 51 86 53 87 53 C 88 53 89 50 89 47 C 89 44 89 0 89 0 L 0 0 L 0 1 Z"/>
        </g>
    </g>
</svg>
