<?xml version="1.0" encoding="UTF-8"?>
<!-- Generated by Pixelmator Pro 3.6.16 -->
<svg width="105" height="87" viewBox="0 0 105 87" xmlns="http://www.w3.org/2000/svg">
    <g id="SVG-copy">
        <g id="Bold">
            <path id="O" fill="#000000" fill-rule="evenodd" stroke="none" d="M 105 49.580017 C 105 57.958557 104.586792 63.890442 103.760376 67.375732 C 102.93396 70.861084 100.346802 74.045959 95.999146 76.930359 C 91.651367 79.814758 85.776611 82.029541 78.374634 83.574768 C 70.972778 85.119995 62.349117 85.892578 52.503906 85.892578 C 43.161743 85.892578 34.771606 85.162903 27.333862 83.703552 C 19.895935 82.244141 13.91333 80.055115 9.385986 77.136353 C 4.858582 74.217651 2.163696 71.041321 1.301331 67.607544 C 0.438965 64.173706 0.007813 58.164612 0.007813 49.580017 L 0.007813 35.312561 C 0.007813 26.934021 0.421021 21.002136 1.247437 17.516846 C 2.073853 14.031494 4.66095 10.846619 9.008667 7.962219 C 13.356384 5.07782 19.231201 2.863037 26.633179 1.31781 C 34.035034 -0.227417 42.658691 -1 52.503906 -1 C 61.846069 -1 70.236206 -0.270325 77.67395 1.189026 C 85.111816 2.648438 91.094482 4.837463 95.621826 7.756226 C 100.149292 10.674927 102.844116 13.851257 103.706421 17.285034 C 104.568848 20.718872 105 26.727966 105 35.312561 Z M 58.618408 22.178223 C 58.618408 18.298035 58.169189 15.817078 57.270874 14.735413 C 56.372681 13.653809 55.522217 13.112976 52.719482 13.112976 C 50.348022 13.112976 49.533447 13.550781 48.275879 14.426392 C 47.018188 15.302002 46.389404 17.885986 46.389404 22.178223 L 46.389404 61.117615 C 46.389404 65.95929 46.802612 68.946716 47.629028 70.079895 C 48.455566 71.213013 49.377808 71.779602 52.396118 71.779602 C 55.486206 71.779602 56.462524 71.127197 57.324829 69.822327 C 58.187134 68.517517 58.618408 65.409912 58.618408 60.499573 Z"/>
        </g>
    </g>
</svg>
